#!OML:ASF H:\LiuWeirdWalks\Patient Classification 1\Patient 1\Session 1\male.ASF
:FULLY-SPECIFIED
:DEGREES
333
root -1.75554 17.7209 -26.3462 2.79807 9.08835 4.06634
lowerback 6.36607 -3.03393 0.267189
upperback 0.9821 -3.87886 4.9614
thorax -2.22128 -1.92367 5.30713
lowerneck -15.6539 2.16837 4.2475
upperneck 21.9475 4.92223 -12.1054
head 9.98974 1.28472 -4.33987
rclavicle -1.23246e-014 1.74931e-014
rhumerus -12.3005 -23.9206 -6.28858
rradius 29.841
rwrist 0.990972
rhand -18.2119 -3.19431
rfingers 7.12502
rthumb 8.06582 -33.0204
lclavicle -1.23246e-014 1.74931e-014
lhumerus -29.253 22.1324 13.6064
lradius 37.5426
lwrist 1.15896
lhand -11.5765 6.43701
lfingers 7.12502
lthumb 14.4651 35.9128
rfemur -9.64547 -1.71659 14.007
rtibia 36.7116
rfoot -17.9106 -31.1307
rtoes -1.19505
lfemur -7.4901 -3.02662 -12.6353
ltibia 27.4974
lfoot -5.93291 17.0703
ltoes -14.2262
334
root -1.77391 17.7239 -26.328 2.75444 8.96789 4.02543
lowerback 6.43267 -2.97568 0.460805
upperback 1.01388 -3.78508 5.00538
thorax -2.24352 -1.87768 5.24024
lowerneck -15.5974 2.10513 4.26482
upperneck 21.864 4.84615 -12.2115
head 9.94528 1.2435 -4.38862
rclavicle 2.0276e-014 -1.59028e-014
rhumerus -12.4155 -23.9023 -6.35612
rradius 29.8633
rwrist 0.976365
rhand -18.2188 -3.19261
rfingers 7.12502
rthumb 8.05914 -33.0189
lclavicle 2.0276e-014 -1.59028e-014
lhumerus -29.1272 22.0558 13.7926
lradius 37.5659
lwrist 1.09719
lhand -11.5733 6.4076
lfingers 7.12502
lthumb 14.4681 35.8832
rfemur -9.52612 -1.63364 14.1275
rtibia 36.6088
rfoot -17.873 -31.1279
rtoes -1.24312
lfemur -7.74606 -3.06147 -12.5106
ltibia 28.1559
lfoot -5.71321 17.0409
ltoes -14.4508
335
root -1.7914 17.7272 -26.3096 2.7139 8.84003 3.99474
lowerback 6.51254 -2.97743 0.609477
upperback 1.04654 -3.77219 5.11204
thorax -2.25775 -1.87198 5.27153
lowerneck -15.565 2.16667 4.32253
upperneck 21.7412 4.9684 -12.4636
head 9.91728 1.28184 -4.46955
rclavicle -4.41302e-014 6.83819e-014
rhumerus -12.2574 -23.8557 -6.51369
rradius 29.8717
rwrist 0.960752
rhand -18.2175 -3.18303
rfingers 7.12502
rthumb 8.06043 -33.0093
lclavicle -4.41302e-014 6.83819e-014
lhumerus -29.2602 22.0502 13.8961
lradius 37.6001
lwrist 1.0418
lhand -11.5699 6.35195
lfingers 7.12502
lthumb 14.4715 35.8273
rfemur -9.41044 -1.53915 14.2331
rtibia 36.5086
rfoot -17.8428 -31.1241
rtoes -1.29255
lfemur -8.01425 -3.1103 -12.3941
ltibia 28.8312
lfoot -5.45853 16.9864
ltoes -14.7484
336
root -1.80776 17.7306 -26.2912 2.67551 8.70362 3.97842
lowerback 6.59592 -2.93536 0.751266
upperback 1.09042 -3.70218 5.19317
thorax -2.26843 -1.83782 5.2752
lowerneck -15.5489 2.14704 4.30534
upperneck 21.6239 4.9675 -12.6048
head 9.877 1.26846 -4.51379
rclavicle -4.65156e-014 2.54444e-014
rhumerus -12.2528 -23.838 -6.5933
rradius 29.9024
rwrist 0.906009
rhand -18.236 -3.20218
rfingers 7.12502
rthumb 8.04257 -33.0292
lclavicle -4.65156e-014 2.54444e-014
lhumerus -29.2206 22.0461 14.0735
lradius 37.6059
lwrist 1.00531
lhand -11.5787 6.29198
lfingers 7.12502
lthumb 14.4629 35.768
rfemur -9.29977 -1.43785 14.3168
rtibia 36.4157
rfoot -17.81 -31.1115
rtoes -1.36161
lfemur -8.28936 -3.17438 -12.2901
ltibia 29.519
lfoot -5.1833 16.9083
ltoes -15.1008
337
root -1.82262 17.734 -26.2727 2.64323 8.56147 3.97961
lowerback 6.687 -2.89229 0.888563
upperback 1.11942 -3.63004 5.26957
thorax -2.29886 -1.80219 5.27729
lowerneck -15.4871 2.13008 4.29311
upperneck 21.4728 4.96616 -12.7489
head 9.81616 1.25765 -4.55854
rclavicle 2.70347e-014 2.70347e-014
rhumerus -12.242 -23.8342 -6.67013
rradius 29.9235
rwrist 0.897465
rhand -18.2394 -3.20504
rfingers 7.12502
rthumb 8.03933 -33.0321
lclavicle 2.70347e-014 2.70347e-014
lhumerus -29.1841 22.0067 14.2471
lradius 37.6072
lwrist 0.993636
lhand -11.5799 6.22921
lfingers 7.12502
lthumb 14.4618 35.7053
rfemur -9.19605 -1.3507 14.3707
rtibia 36.3272
rfoot -17.7594 -31.0802
rtoes -1.46999
lfemur -8.57288 -3.25877 -12.205
ltibia 30.2225
lfoot -4.90201 16.8137
ltoes -15.476
338
root -1.83619 17.7372 -26.2538 2.60355 8.41342 3.98215
lowerback 6.77196 -2.8466 1.03743
upperback 1.15672 -3.55405 5.34212
thorax -2.31843 -1.76491 5.26758
lowerneck -15.4583 2.111 4.27045
upperneck 21.3732 4.96565 -12.8768
head 9.77937 1.24567 -4.59738
rclavicle -4.8901e-014 4.29375e-014
rhumerus -12.2253 -23.8801 -6.7488
rradius 29.9324
rwrist 0.905899
rhand -18.2524 -3.19782
rfingers 7.12502
rthumb 8.02677 -33.0254
lclavicle -4.8901e-014 4.29375e-014
lhumerus -29.1295 21.9629 14.4241
lradius 37.6025
lwrist 1.00301
lhand -11.5934 6.19526
lfingers 7.12502
lthumb 14.4488 35.6723
rfemur -9.08374 -1.27546 14.4143
rtibia 36.2382
rfoot -17.689 -31.0318
rtoes -1.61469
lfemur -8.85469 -3.35465 -12.1194
ltibia 30.9446
lfoot -4.59965 16.6934
ltoes -15.9122
